# xmcd
#
# Track frame offsets: 
#        150
#        13390
#        32340
#        45575
#        65905
#        80617
#        95215
#        115712
#        126852
#        140280
#
# Disc length: 2030 seconds
#
# Revision: 1
# Processed by: cddbd v1.5.2PL0 Copyright (c) Steve Scherf et al.
# Submitted via: ExactAudioCopy v0.99pb4
#
DISCID=8907ec0a
DTITLE=Raful Neal - Louisiana Legend
DYEAR=1990
DGENRE=Blues
TTITLE0=Luberta 
TTITLE1=Steal Away
TTITLE2=Blues On The Moon
TTITLE3=Down And Out 
TTITLE4=You Don't Love Me
TTITLE5=No Cuttin' Loose
TTITLE6=Been So Long
TTITLE7=Late In The Evening
TTITLE8=Honest I Do
TTITLE9=Let's Work Together
EXTD=
EXTT0=
EXTT1=
EXTT2=
EXTT3=
EXTT4=
EXTT5=
EXTT6=
EXTT7=
EXTT8=
EXTT9=
PLAYORDER=
